Coordinates
version=1
nRows=11
nColumns=63
inDegrees=yes

Units are S.I. units (second, meters, Newtons, ...)
If the header above contains a line with 'inDegrees', this indicates whether rotational values are in degrees (yes) or radians (no).

endheader
time	pelvis_tilt	pelvis_list	pelvis_rotation	pelvis_tx	pelvis_ty	pelvis_tz	hip_flexion_r	hip_adduction_r	hip_rotation_r	knee_angle_r	knee_angle_r_beta	ankle_angle_r	subtalar_angle_r	mtp_angle_r	hip_flexion_l	hip_adduction_l	hip_rotation_l	knee_angle_l	knee_angle_l_beta	ankle_angle_l	subtalar_angle_l	mtp_angle_l	L5_S1_Flex_Ext	L5_S1_Lat_Bending	L5_S1_axial_rotation	L4_L5_Flex_Ext	L4_L5_Lat_Bending	L4_L5_axial_rotation	L3_L4_Flex_Ext	L3_L4_Lat_Bending	L3_L4_axial_rotation	L2_L3_Flex_Ext	L2_L3_Lat_Bending	L2_L3_axial_rotation	L1_L2_Flex_Ext	L1_L2_Lat_Bending	L1_L2_axial_rotation	L1_T12_Flex_Ext	L1_T12_Lat_Bending	L1_T12_axial_rotation	Abs_r3	Abs_r2	Abs_r1	Abs_t1	Abs_t2	neck_flexion	neck_bending	neck_rotation	arm_flex_r	arm_add_r	arm_rot_r	elbow_flex_r	pro_sup_r	wrist_flex_r	wrist_dev_r	arm_flex_l	arm_add_l	arm_rot_l	elbow_flex_l	pro_sup_l	wrist_flex_l	wrist_dev_l
      1.16949153	     -0.25164166	     -1.82290452	     91.34110372	      0.19656632	      0.86545776	      0.57498785	     -3.04277402	     -3.98220384	    -11.28927086	      4.21386129	      0.07354575	     29.27832015	      9.60587690	      0.00000000	     -2.12124570	      2.42630683	      0.76461576	      2.29511937	      0.04005739	     24.81380738	      7.13744091	      0.00000000	     -0.08705860	     -1.08191680	     -1.51433488	     -0.16167652	     -1.43894935	     -1.60898081	     -0.14302857	     -2.63057251	     -1.60898081	     -0.09949927	     -2.63057251	     -1.32504302	     -0.08084261	     -2.20624474	     -1.23039709	     -0.04974528	     -1.67588913	     -1.13575116	     -0.62185085	    -12.23885926	     -8.42227629	      0.00000000	      0.00000000	     24.08939591	      8.51193266	     -7.91071816	     19.15773838	    -14.60885983	     -0.62543776	    149.36310348	     80.37047323	     68.26979165	     -5.17199492	     11.32863446	    -15.77573873	    171.52514603	      6.06355805	      8.91597685	     -5.11980291	     -0.79910244
      1.18644068	     -0.46504148	     -2.06488903	     91.33736021	      0.19634390	      0.86456968	      0.57546346	     -2.54694312	     -4.33063559	    -12.08993938	      4.85945618	      0.08481351	     29.63368041	     10.48111500	      0.00000000	     -1.74392264	      2.62546908	     -1.54439007	      2.47154698	      0.04313663	     25.50409466	      9.94592340	      0.00000000	     -0.07861261	     -1.10710050	     -1.37868027	     -0.14599147	     -1.47244367	     -1.46484778	     -0.12915265	     -2.69180416	     -1.46484778	     -0.08984635	     -2.69180416	     -1.20634523	     -0.07299967	     -2.25759934	     -1.12017772	     -0.04491924	     -1.71489868	     -1.03401020	     -0.56152200	    -12.52374230	     -7.66780604	      0.00000000	      0.00000000	     24.37077452	      7.73551216	     -7.73820428	     16.49771706	    -15.18877678	     -3.28063211	    148.93580413	     81.53903303	     68.87601378	    -11.10767223	     11.63048060	    -14.98414277	    178.09281481	      5.23302350	      8.72680559	     -6.50631176	     -0.88619410
      1.20338983	     -0.52600980	     -2.26010834	     91.55157894	      0.19566518	      0.86350564	      0.57596624	     -2.18521889	     -4.47570509	    -12.38221639	      5.30446111	      0.09258031	     30.14735970	     10.59667723	      0.00000000	     -1.44450786	      2.71823515	     -1.68791382	      2.55869298	      0.04465762	     26.00603187	     10.13403056	      0.00000000	     -0.07701063	     -1.10284922	     -1.35517813	     -0.14301644	     -1.46678947	     -1.43987677	     -0.12652077	     -2.68146760	     -1.43987677	     -0.08801545	     -2.68146760	     -1.18578087	     -0.07151207	     -2.24893014	     -1.10108223	     -0.04400387	     -1.70831345	     -1.01638360	     -0.55007924	    -12.47565100	     -7.53709422	      0.00000000	      0.00000000	     24.64500820	      6.79596328	     -7.03989502	     14.45433414	    -15.51035316	     -5.40571799	    148.28920174	     81.31366818	     69.25230141	    -15.17828669	     11.79450701	    -14.41437828	    179.25194321	      4.64173937	      9.65439600	     -7.62533257	     -1.00251567
      1.22033898	     -0.50084076	     -2.39500955	     91.80619495	      0.19488993	      0.86273396	      0.57656122	     -1.89163747	     -4.52551240	    -13.15435212	      5.68548733	      0.09923047	     30.44244139	     11.08589145	      0.00000000	     -1.22462171	      2.71994707	     -1.67674980	      2.58540409	      0.04512381	     26.30874676	     10.24735438	      0.00000000	     -0.08480368	     -1.08670399	     -1.37584947	     -0.15748891	     -1.44531630	     -1.46184006	     -0.13932396	     -2.64221207	     -1.46184006	     -0.09692212	     -2.64221207	     -1.20386828	     -0.07874870	     -2.21600677	     -1.11787769	     -0.04845682	     -1.68330447	     -1.03188710	     -0.60574419	    -12.29301282	     -7.65206197	      0.00000000	      0.00000000	     24.94238868	      5.54208344	     -6.45778149	     12.62760331	    -15.47885359	     -8.07998232	    147.74474509	     83.86268968	     69.42864859	    -20.90238326	     11.89690396	    -14.03911038	    177.64749123	      4.08327152	      8.78780116	     -8.12229142	     -1.40506283
      1.23728814	     -0.32036180	     -2.52335395	     91.97588229	      0.19384870	      0.86188642	      0.57697382	     -1.64387994	     -4.41048707	    -13.37133916	      5.94056871	      0.10368248	     30.77308306	     11.07365293	      0.00000000	     -1.01171544	      2.59470900	     -1.50629085	      2.63388020	      0.04596988	     26.82260263	     10.13692930	      0.00000000	     -0.08352890	     -1.04294029	     -1.40068573	     -0.15512152	     -1.38711059	     -1.48822858	     -0.13722963	     -2.53580502	     -1.48822858	     -0.09546518	     -2.53580502	     -1.22560001	     -0.07756494	     -2.12676384	     -1.13805715	     -0.04772841	     -1.61551451	     -1.05051429	     -0.59663857	    -11.79794916	     -7.79019380	      0.00000000	      0.00000000	     25.31758249	      3.99820222	     -5.86511704	     10.86706519	    -15.08338914	    -11.13391345	    147.55167375	     83.87625479	     69.54478636	    -22.15288204	     11.99729890	    -13.59415435	    175.48844281	      3.61481707	      7.09557385	     -8.70567196	     -1.93333510
      1.25423729	     -0.19330001	     -2.56736730	     91.95949835	      0.19302454	      0.86135151	      0.57730244	     -1.49178591	     -4.36483523	    -13.46124088	      6.15139178	      0.10736204	     31.03974498	     11.23206800	      0.00000000	     -0.91588072	      2.53817618	     -1.25848586	      2.64064206	      0.04608790	     27.26764359	      9.72996644	      0.00000000	     -0.08628441	     -1.01175910	     -1.41291174	     -0.16023877	     -1.34563961	     -1.50121873	     -0.14175665	     -2.45999108	     -1.50121873	     -0.09861445	     -2.45999108	     -1.23629778	     -0.08012370	     -2.06317916	     -1.14799079	     -0.04930291	     -1.56721485	     -1.05968381	     -0.61632090	    -11.44522132	     -7.85819125	      0.00000000	      0.00000000	     25.83780145	      2.20288557	     -5.81154442	      9.14424339	    -14.31813032	    -14.41187962	    147.40708649	     84.25597967	     69.61257420	    -22.96501600	     12.08543872	    -13.31784338	    171.55107747	      3.37682401	      4.93567416	     -8.98881360	     -2.78148594
      1.27118644	     -0.01869478	     -2.54478851	     91.74873960	      0.19229521	      0.86108672	      0.57712566	     -1.39014322	     -4.28755770	    -13.57627561	      6.41495626	      0.11196211	     31.29793671	     11.51750950	      0.00000000	     -1.01188691	      2.45453821	     -0.49769534	      2.46815864	      0.04307749	     27.45994581	      8.51734546	      0.00000000	     -0.07815088	     -0.97949557	     -1.42217343	     -0.14513399	     -1.30272911	     -1.51105927	     -0.12839407	     -2.38154553	     -1.51105927	     -0.08931864	     -2.38154553	     -1.24440175	     -0.07257090	     -1.99738737	     -1.15551591	     -0.04465541	     -1.51723864	     -1.06663007	     -0.55822389	    -11.08024981	     -7.90970198	      0.00000000	      0.00000000	     26.48064450	      0.76459797	     -5.63997666	      7.52357128	    -13.31375594	    -17.53057020	    147.13269798	     84.48190975	     69.65491831	    -23.21108515	     12.03327491	    -13.10127506	    165.21433366	      3.47020529	      4.74227544	     -9.25895439	     -3.86148235
      1.28813559	      0.20668771	     -2.53768143	     91.40577063	      0.19205954	      0.86108259	      0.57651491	     -1.34030180	     -4.11502001	    -13.38975051	      6.50048114	      0.11345480	     31.37849250	     11.72245095	      0.00000000	     -1.12032022	      2.28537648	     -0.11435861	      2.31454064	      0.04039635	     27.62982907	      7.69318257	      0.00000000	     -0.04962421	     -0.95267246	     -1.39820530	     -0.09215713	     -1.26705437	     -1.48559313	     -0.08152762	     -2.31632781	     -1.48559313	     -0.05671552	     -2.31632781	     -1.22342963	     -0.04608105	     -1.94268967	     -1.13604180	     -0.02835528	     -1.47568963	     -1.04865397	     -0.35446080	    -10.77682136	     -7.77639839	      0.00000000	      0.00000000	     27.07978842	     -0.25183768	     -5.36618355	      5.85350823	    -12.09142268	    -20.60288446	    146.76197724	     85.13155875	     69.67986351	    -23.27306315	     12.00740161	    -12.93601058	    161.08514467	      3.80734480	      3.83250204	     -9.58783584	     -4.88506463
      1.30508475	      0.46833608	     -2.51966820	     91.20808936	      0.19190373	      0.86134596	      0.57526410	     -1.40562132	     -3.85998835	    -13.24894492	      6.44507481	      0.11248778	     31.35262533	     11.86734846	      0.00000000	     -1.33074988	      2.03531801	      0.13504353	      2.06050207	      0.03596255	     27.63423715	      7.36801413	      0.00000000	     -0.00556865	     -0.93280862	     -1.40688038	     -0.01034154	     -1.24063547	     -1.49481040	     -0.00914873	     -2.26803089	     -1.49481040	     -0.00636441	     -2.26803089	     -1.23102033	     -0.00517105	     -1.90218334	     -1.14309031	     -0.00318193	     -1.44492056	     -1.05516028	     -0.03977630	    -10.55211771	     -7.82464660	      0.00000000	      0.00000000	     27.51309747	     -0.77639022	     -5.02105763	      4.11375312	    -10.80632005	    -23.23237956	    146.21671617	     86.07966630	     69.69560991	    -22.96977843	     11.90974828	    -12.85827219	    158.20961140	      4.27289939	      3.08514710	    -10.00491334	     -5.64187700
      1.32203390	      0.68838930	     -2.37687618	     90.88969853	      0.19240048	      0.86206047	      0.57384396	     -1.62794414	     -3.59294893	    -12.85034769	      6.28195400	      0.10964078	     31.26612299	     11.93756584	      0.00000000	     -1.69502927	      1.80366107	      0.85167754	      1.81876771	      0.03174348	     27.29954300	      6.18695172	      0.00000000	      0.03324845	     -0.93358977	     -1.45639813	      0.06174570	     -1.24167440	     -1.54742301	      0.05462388	     -2.26993018	     -1.54742301	      0.03799965	     -2.26993018	     -1.27434836	      0.03087451	     -1.90377627	     -1.18332348	      0.01899816	     -1.44613056	     -1.09229859	      0.23749036	    -10.56095425	     -8.10004945	      0.00000000	      0.00000000	     27.76257954	     -1.42818212	     -5.18009873	      2.62758656	     -9.45404197	    -24.71312615	    145.09405794	     86.92493534	     69.69978797	    -22.39550740	     11.60332663	    -13.14778408	    151.78432896	      5.09608587	      4.25900273	    -10.43876253	     -6.70351626
      1.33898305	      0.84118943	     -2.20132329	     90.67135103	      0.19315313	      0.86295931	      0.57218522	     -1.97749757	     -3.35905109	    -12.59848668	      5.95479468	      0.10393077	     31.15607360	     12.18434285	      0.00000000	     -2.09366549	      1.59802491	      0.79515127	      1.61032561	      0.02810548	     26.99649383	      6.11507751	      0.00000000	      0.07364939	     -0.95567175	     -1.50023446	      0.13677429	     -1.27104343	     -1.59399911	      0.12099859	     -2.32362029	     -1.59399911	      0.08417389	     -2.32362029	     -1.31270515	      0.06839083	     -1.94880583	     -1.21894050	      0.04208326	     -1.48033554	     -1.12517585	      0.52607025	    -10.81074998	     -8.34385400	      0.00000000	      0.00000000	     27.87887436	     -1.64812908	     -5.52745328	      1.01545267	     -7.93466134	    -26.31282101	    144.00015714	     87.55497581	     69.69377257	    -20.81754350	     11.30812405	    -13.44670174	    150.16586204	      5.49814183	      3.54884320	    -10.81534155	     -7.35160984
